<?xml version="1.0" encoding="utf-8"?>
<!-- Generator: Adobe Illustrator 19.0.0, SVG Export Plug-In . SVG Version: 6.00 Build 0)  -->
<svg version="1.1" id="layer" xmlns="http://www.w3.org/2000/svg" xmlns:xlink="http://www.w3.org/1999/xlink" x="0px" y="0px"
	 viewBox="-153 -46 652 652" style="enable-background:new -153 -46 652 652;" xml:space="preserve">
<style type="text/css">
	.st0{fill:#0054A5;}
	.st1{fill:#FFFFFF;}
	.st2{fill:#94B0BE;}
</style>
<polygon class="st0" points="-27.6,167.7 -62.9,284.7 -101.3,284.7 -131.2,167.7 -96.5,167.7 -80.5,233.4 -59.6,167.8 "/>
<polygon class="st0" points="157.5,254.2 148.3,284.4 83.4,284.4 83.4,167.7 118.2,167.7 118.2,254.2 "/>
<polygon class="st0" points="239.3,254.2 230,284.4 165.1,284.4 165.1,167.7 199.9,167.7 199.9,254.2 "/>
<polygon class="st0" points="356.5,284.3 393.7,226.2 360.6,167.5 397.5,167.5 414,195.3 432.7,167.5 468.5,167.5 433.8,226.8 
	466.4,283.9 430.1,283.9 413,255.1 396.4,283.9 "/>
<path class="st0" d="M243,226.6c0-33.5,27.1-60.6,60.6-60.6s60.6,27.1,60.6,60.6s-27.1,60.6-60.6,60.6S243,260.1,243,226.6
	C243,226.6,243,226.6,243,226.6"/>
<path class="st1" d="M274.1,227c0-16.2,13.2-29.4,29.4-29.4c16.2,0,29.4,13.2,29.4,29.4s-13.2,29.4-29.4,29.4
	C287.2,256.3,274.1,243.2,274.1,227L274.1,227"/>
<polygon class="st0" points="74.4,284.1 36.4,167.7 -2,167.7 -41.5,284.1 -7.4,284.1 -2,269.2 35.3,269.2 40.1,284.1 "/>
<polygon class="st1" points="27.4,240.8 17.8,212 7,240.8 27.3,240.8 "/>
<path class="st2" d="M443.6,346.2V339l1.4-0.1h1.1c4.7,0,6.3,0.9,6.3,3.6c0.1,1.7-1.2,3.2-2.9,3.5c-1.1,0.2-2.3,0.2-3.4,0.2H443.6z
	 M430.6,371.1h13v-15.3h3.4l6.2,15.2h15.3l-8.9-17.8c2-1.1,3.6-2.7,4.7-4.7c1.2-2.1,1.8-4.5,1.7-6.9c0.2-4.5-2-8.7-5.9-11
	c-2.7-1.7-4.5-2-11.2-2h-18.2v42.4L430.6,371.1z M422.7,328.6h-13.2v42.5h13.2V328.6L422.7,328.6z M388.2,355.9h-8.5l4.7-13.3
	L388.2,355.9z M392.7,328.6h-15.2l-15.3,42.5h12.4l2.1-6.3h13.8l1.7,6.3h13.6L392.7,328.6z M344.6,328.6h-13v16h-12.4v-16h-13.2
	v42.5h13.2v-16h12.4v16h13.2v-42.5L344.6,328.6z M299.8,337.1c-0.6-2.5-2.1-4.7-4.2-6.2c-2.8-2.4-6.9-3.4-13.2-3.4
	c-4.7-0.3-9.3,0.9-13.2,3.6c-3.1,2.4-4.9,6.1-5,10c0,3.2,1.1,6.2,3.2,8.6c2.5,2.4,5.6,4.1,9.1,4.9c2.2,0.3,4.3,0.8,6.4,1.5
	c1.5,0.3,2.6,1.6,2.6,3.1c0,1.8-1.7,2.9-4.4,2.9c-2,0-4-0.7-5.6-2c-0.7-0.8-1.3-1.9-1.6-2.9l-12.4,3.6c1,3.4,3.2,6.3,6.2,8.2
	c3.8,2.4,8.3,3.5,12.8,3.3c6.2,0,10-0.9,13.4-3.4c3.8-2.6,6-6.9,6-11.5c0.1-3.6-1.5-7.1-4.2-9.4c-2.6-1.7-5.5-2.9-8.5-3.4
	c-6.1-1.3-6.6-1.5-8-2.2c-0.9-0.5-1.5-1.4-1.5-2.5c0.3-2.2,2.4-3.7,4.6-3.4c3,0,5.5,2.1,6,5L299.8,337.1z M239,344.9v-6.2h16.2
	v-10.2h-29.4v42.5h31.9v-10.2H239v-6.4h16.2v-9.6L239,344.9L239,344.9z M196.7,346.2V339l1.4-0.1h0.9c4.7,0,6.3,0.9,6.3,3.6
	c0.1,1.7-1.2,3.2-2.9,3.5c-1.1,0.2-2.3,0.2-3.4,0.2H196.7z M183.6,371.1h13v-15.3h3.4l6.2,15.2h15.1l-8.9-17.8
	c1.9-1.1,3.5-2.7,4.5-4.7c1.2-2.1,1.8-4.5,1.7-6.9c0.3-4.5-2-8.7-5.8-11c-2.7-1.7-4.5-2-11.2-2h-18.2L183.6,371.1L183.6,371.1z
	 M161.1,345.8v-7h16.2v-10.2h-29.4v42.5H161v-15.8h16.2v-9.6L161.1,345.8L161.1,345.8z M108.9,344.3h7l-4.1,23.5
	c-0.4,3.1-1.1,6.2-2.1,9.2c-0.7,2.7-3,4.6-5.8,4.8c-0.9,0.2-1.7-0.4-1.9-1.3c0-0.1,0-0.1,0-0.2c0-0.3,0.1-0.5,0.2-0.8
	c0.6-0.6,0.9-1.3,0.9-2.2c0-1.5-1.1-2.8-2.7-2.8c-0.1,0-0.1,0-0.2,0c-2.1,0-3.7,1.7-3.7,3.8c0,0.1,0,0.1,0,0.2
	c0,2.9,2.5,4.7,6.2,4.7c6.8,0,11-4.7,14.2-15.9c1.1-4.1,2-8.2,2.5-12.4l1.8-10.6h9l0.3-1.7h-9.1l0.6-2.9c0.6-3,1.6-6,2.9-8.8
	c0.7-1.7,2.2-2.8,4-3.1c0.8,0,1.5,0.5,1.7,1.2c-0.1,0.3-0.2,0.7-0.5,0.9c-0.9,0.6-1.5,1.6-1.5,2.7c0,1.6,1.4,2.9,3,2.9
	c0.1,0,0.2,0,0.2,0c2.2-0.1,3.8-2,3.7-4.2c0-0.1,0-0.1,0-0.2c0-2.7-2.3-5-5-5c-0.2,0-0.4,0-0.6,0c-3.6,0.2-6.9,2-8.9,5
	c-2.3,3.3-3.9,7.1-4.7,11.1h-7L108.9,344.3z M92.9,342.1c3.3,0,5,2.2,5,6.8c-0.1,5.6-1.4,11-3.8,16c-1.3,3-4.1,5-7.3,5.3
	c-3.3,0-5-2.2-5-6.3c0.3-5,1.3-9.8,3.1-14.5C87.1,344.5,89.6,342.1,92.9,342.1 M93.4,340.6c-4-0.2-7.8,1.2-10.8,3.9
	c-4.3,4.4-6.8,10.2-6.9,16.4c0,7.3,3.4,10.8,10.3,10.8c4.7,0.3,9.2-1.7,12.3-5.2c3.6-4.2,5.6-9.6,5.7-15.2
	C103.9,344.2,100.4,340.6,93.4,340.6 M35.7,344.9v-6.2h16.2v-10.2H22.5v42.5h31.9v-10.2H35.7v-6.4h16.2v-9.6H35.7z M15.8,328.5h-17
	l-9.3,22.4l-9.1-22.4H-37v42.5h12.7v-24.6l8.8,24.6h10L3,346.5v24.6h12.9L15.8,328.5L15.8,328.5z M-64.3,337.6
	c2.9-0.1,5.5,1.6,6.7,4.2c1.1,2.5,1.7,5.2,1.7,8c0,2.8-0.6,5.5-1.7,8c-1.2,2.6-3.8,4.2-6.7,4.1c-2.9,0.1-5.5-1.5-6.7-4.2
	c-1.1-2.5-1.7-5.3-1.7-8.1c0-2.7,0.6-5.4,1.7-7.9C-69.8,339.2-67.1,337.6-64.3,337.6 M-64.3,327.4c-5.3-0.2-10.6,1.3-14.9,4.3
	c-5.2,3.8-7.7,9.4-7.7,17.6c0,9,2.2,14.4,7.7,18.4c4.4,3.1,9.6,4.6,14.9,4.3c5.3,0.3,10.6-1.3,14.9-4.3c5.4-4,7.7-9.4,7.7-18
	s-2.3-14.1-7.7-18C-53.7,328.7-59,327.2-64.3,327.4 M-92.8,328.6H-106v16h-12.4v-16h-13.1v42.5h13.2v-16h12.4v16h13.2v-42.5
	L-92.8,328.6z"/>
</svg>
